<svg width="534" height="450" viewBox="0 0 534 450" fill="none" xmlns="http://www.w3.org/2000/svg">
<rect x="70.5179" y="204" width="188.245" height="188.245" rx="20" transform="rotate(22 70.5179 204)" fill="url(#paint0_radial_1_28)"/>
<rect x="70.8354" y="93" width="119.687" height="119.687" rx="20" transform="rotate(22 70.8354 93)" fill="url(#paint1_radial_1_28)"/>
<rect x="266.835" y="230" width="119.687" height="119.687" rx="20" transform="rotate(22 266.835 230)" fill="url(#paint2_radial_1_28)"/>
<rect x="188.835" y="60" width="119.687" height="119.687" rx="20" transform="rotate(22 188.835 60)" fill="url(#paint3_radial_1_28)"/>
<rect x="422.835" y="107" width="119.687" height="119.687" rx="20" transform="rotate(22 422.835 107)" fill="url(#paint4_radial_1_28)"/>
<rect x="233.835" y="164" width="119.687" height="119.687" rx="20" transform="rotate(22 233.835 164)" fill="url(#paint5_radial_1_28)"/>
<rect x="266.835" width="119.687" height="119.687" rx="20" transform="rotate(22 266.835 0)" fill="url(#paint6_radial_1_28)"/>
<rect x="311.835" y="93" width="119.687" height="119.687" rx="20" transform="rotate(22 311.835 93)" fill="url(#paint7_radial_1_28)"/>
<defs>
<radialGradient id="paint0_radial_1_28" cx="0" cy="0" r="1" gradientUnits="userSpaceOnUse" gradientTransform="translate(242.257 167.32) rotate(128.237) scale(282.329 375.409)">
<stop stop-color="#4200FF"/>
<stop offset="1" stop-color="#00FFF0"/>
</radialGradient>
<radialGradient id="paint1_radial_1_28" cx="0" cy="0" r="1" gradientUnits="userSpaceOnUse" gradientTransform="translate(180.027 69.6787) rotate(128.237) scale(179.505 238.686)">
<stop stop-color="#4200FF"/>
<stop offset="1" stop-color="#00FFF0"/>
</radialGradient>
<radialGradient id="paint2_radial_1_28" cx="0" cy="0" r="1" gradientUnits="userSpaceOnUse" gradientTransform="translate(376.027 206.679) rotate(128.237) scale(179.505 238.686)">
<stop stop-color="#4200FF"/>
<stop offset="1" stop-color="#00FFF0"/>
</radialGradient>
<radialGradient id="paint3_radial_1_28" cx="0" cy="0" r="1" gradientUnits="userSpaceOnUse" gradientTransform="translate(298.027 36.6787) rotate(128.237) scale(179.505 238.686)">
<stop stop-color="#4200FF"/>
<stop offset="1" stop-color="#00FFF0"/>
</radialGradient>
<radialGradient id="paint4_radial_1_28" cx="0" cy="0" r="1" gradientUnits="userSpaceOnUse" gradientTransform="translate(532.027 83.6787) rotate(128.237) scale(179.505 238.686)">
<stop stop-color="#4200FF"/>
<stop offset="1" stop-color="#00FFF0"/>
</radialGradient>
<radialGradient id="paint5_radial_1_28" cx="0" cy="0" r="1" gradientUnits="userSpaceOnUse" gradientTransform="translate(343.027 140.679) rotate(128.237) scale(179.505 238.686)">
<stop stop-color="#4200FF"/>
<stop offset="1" stop-color="#00FFF0"/>
</radialGradient>
<radialGradient id="paint6_radial_1_28" cx="0" cy="0" r="1" gradientUnits="userSpaceOnUse" gradientTransform="translate(376.027 -23.3213) rotate(128.237) scale(179.505 238.686)">
<stop stop-color="#4200FF"/>
<stop offset="1" stop-color="#00FFF0"/>
</radialGradient>
<radialGradient id="paint7_radial_1_28" cx="0" cy="0" r="1" gradientUnits="userSpaceOnUse" gradientTransform="translate(421.027 69.6787) rotate(128.237) scale(179.505 238.686)">
<stop stop-color="#4200FF"/>
<stop offset="1" stop-color="#00FFF0"/>
</radialGradient>
</defs>
</svg>
